<svg xmlns="http://www.w3.org/2000/svg" width="18" height="18" fill="none"><g fill="#FDFDFD" clip-path="url(#a)"><path d="M16.313 18H1.688A1.685 1.685 0 0 1 0 16.312v-13.5c0-.933.754-1.687 1.688-1.687h14.624c.934 0 1.688.754 1.688 1.688v13.5c0 .933-.754 1.687-1.688 1.687ZM1.688 2.25a.557.557 0 0 0-.563.563v13.5c0 .315.248.562.563.562h14.624a.557.557 0 0 0 .563-.563v-13.5a.557.557 0 0 0-.563-.562H1.688Z"/><path d="M5.063 4.5a.557.557 0 0 1-.563-.563V.563C4.5.247 4.747 0 5.063 0c.315 0 .562.247.562.563v3.375a.557.557 0 0 1-.563.562Zm7.875 0a.557.557 0 0 1-.563-.563V.563c0-.315.248-.563.563-.563.314 0 .562.247.562.563v3.375a.557.557 0 0 1-.563.562Zm4.5 2.25H.563A.557.557 0 0 1 0 6.187c0-.315.247-.562.563-.562h16.875c.315 0 .562.247.562.563a.557.557 0 0 1-.563.562Z"/></g><defs><clipPath id="a"><path fill="#fff" d="M0 0h18v18H0z"/></clipPath></defs></svg>