<svg xmlns="http://www.w3.org/2000/svg" width="21" height="24" fill="none"><g clip-path="url(#a)"><path fill="#FDFDFD" d="M6 1.875a1.874 1.874 0 1 1 3.75 0v6.947a2.253 2.253 0 0 1 3.61.89 2.25 2.25 0 0 1 3.886 1.364A2.25 2.25 0 0 1 21 12.75v5.251a6 6 0 0 1-6.001 6h-3.998c-.235 0-.465-.014-.69-.047A9.39 9.39 0 0 1 3.75 20.25l-3.375-4.5a1.872 1.872 0 0 1 .375-2.625 1.872 1.872 0 0 1 2.625.375L6 17.002V1.875Zm5.25 12.375a.752.752 0 0 0-.75-.75.752.752 0 0 0-.75.75v4.5c0 .413.338.75.75.75s.75-.337.75-.75v-4.5Zm2.25-.75a.752.752 0 0 0-.75.75v4.5c0 .413.338.75.75.75s.75-.337.75-.75v-4.5a.752.752 0 0 0-.75-.75Zm3.75.75a.752.752 0 0 0-.75-.75.752.752 0 0 0-.75.75v4.5c0 .413.337.75.75.75s.75-.337.75-.75v-4.5Z"/></g><defs><clipPath id="a"><path fill="#fff" d="M0 0h21v24H0z"/></clipPath></defs></svg>